<?xml version="1.0" encoding="UTF-8"?>
<svg width="120px" height="123px" viewBox="0 0 120 123" version="1.1" xmlns="http://www.w3.org/2000/svg" xmlns:xlink="http://www.w3.org/1999/xlink">
    <title>affinity photo</title>
    <defs>
        <linearGradient x1="93.930914%" y1="5.22860077%" x2="16.5572932%" y2="99.5427503%" id="linearGradient-1">
            <stop stop-color="#FABDFF" offset="0%"></stop>
            <stop stop-color="#E370FA" offset="100%"></stop>
        </linearGradient>
        <rect id="path-2" x="0" y="0" width="119" height="119" rx="20"></rect>
        <linearGradient x1="46.2641495%" y1="78.7014456%" x2="43.236008%" y2="0%" id="linearGradient-4">
            <stop stop-color="#7C4BD0" offset="0%"></stop>
            <stop stop-color="#8D5EDE" offset="100%"></stop>
        </linearGradient>
        <linearGradient x1="40.8696034%" y1="26.0465069%" x2="62.8184586%" y2="47.7512375%" id="linearGradient-5">
            <stop stop-color="#FFFFFF" offset="0%"></stop>
            <stop stop-color="#FFFFFF" offset="0%"></stop>
            <stop stop-color="#FDFDFE" offset="0%"></stop>
            <stop stop-color="#6137A4" offset="100%"></stop>
        </linearGradient>
    </defs>
    <g id="Page-1" stroke="none" stroke-width="1" fill="none" fill-rule="evenodd">
        <g id="iPhone-8" transform="translate(-220.000000, -6.000000)">
            <g id="affinity-photo" transform="translate(221.000000, 6.128008)">
                <g id="Path-3" transform="translate(0.000000, 1.871992)">
                    <mask id="mask-3" fill="white">
                        <use xlink:href="#path-2"></use>
                    </mask>
                    <use id="Mask" fill="url(#linearGradient-1)" xlink:href="#path-2"></use>
                    <path d="M41,-0.636393573 C33.2057904,-0.636393573 0,-5.26633935 0,18.5166631 C0,34.3719981 0,54.5331104 0,79" fill="url(#linearGradient-4)" mask="url(#mask-3)"></path>
                </g>
                <g id="Group-2" transform="translate(9.035898, 0.000000)" fill="#6F3FC0" fill-rule="nonzero">
                    <path d="M61.9641016,51.871992 C61.9641016,54.081131 60.1732406,55.871992 57.9641016,55.871992 L4.21392271,55.871992 L4.21392271,55.871992 L7.30185576,47.871992 L57.9641016,47.871992 C60.1732406,47.871992 61.9641016,49.662853 61.9641016,51.871992 Z" id="Path-4"></path>
                    <path d="M84.6102284,32.8901151 C84.6102284,35.121453 82.8426408,36.9517569 80.6126585,37.029524 L16.2399653,39.2744198 L16.2399653,39.2744198 L11.5313901,32.8445978 L80.6160719,29.1062491 C82.7058434,28.9931663 84.4916097,30.595589 84.6046926,32.6853605 C84.6083824,32.7535497 84.6102284,32.8218261 84.6102284,32.8901151 Z" id="Path-4-Copy" transform="translate(48.070809, 34.187517) rotate(60.000000) translate(-48.070809, -34.187517) "></path>
                    <path d="M125.464102,46.871992 C125.464102,49.081131 123.673241,50.871992 121.464102,50.871992 L33.9641016,50.871992 C31.7549626,50.871992 29.9641016,49.081131 29.9641016,46.871992 C29.9641016,44.662853 31.7549626,42.871992 33.9641016,42.871992 L121.464102,42.871992 C123.673241,42.871992 125.464102,44.662853 125.464102,46.871992 Z" id="Path-4-Copy-2" transform="translate(77.714102, 46.871992) rotate(120.000000) translate(-77.714102, -46.871992) "></path>
                    <path d="M109.964102,84.871992 C109.964102,87.081131 108.173241,88.871992 105.964102,88.871992 L41.9641016,88.871992 C39.7549626,88.871992 37.9641016,87.081131 37.9641016,84.871992 C37.9641016,82.662853 39.7549626,80.871992 41.9641016,80.871992 L105.964102,80.871992 C108.173241,80.871992 109.964102,82.662853 109.964102,84.871992 Z" id="Path-4-Copy-3" transform="translate(73.964102, 84.871992) rotate(180.000000) translate(-73.964102, -84.871992) "></path>
                    <path d="M76.9641016,93.871992 C76.9641016,96.081131 75.1732406,97.871992 72.9641016,97.871992 L19.9641016,97.871992 C17.7549626,97.871992 15.9641016,96.081131 15.9641016,93.871992 C15.9641016,91.662853 17.7549626,89.871992 19.9641016,89.871992 L72.9641016,89.871992 C75.1732406,89.871992 76.9641016,91.662853 76.9641016,93.871992 Z" id="Path-4-Copy-4" transform="translate(46.464102, 93.871992) rotate(240.000000) translate(-46.464102, -93.871992) "></path>
                    <path d="M61.9641016,85.871992 C61.9641016,88.081131 60.1732406,89.871992 57.9641016,89.871992 L-12.0358984,89.871992 C-14.2450374,89.871992 -16.0358984,88.081131 -16.0358984,85.871992 C-16.0358984,83.662853 -14.2450374,81.871992 -12.0358984,81.871992 L57.9641016,81.871992 C60.1732406,81.871992 61.9641016,83.662853 61.9641016,85.871992 Z" id="Path-4-Copy-5" transform="translate(22.964102, 85.871992) rotate(300.000000) translate(-22.964102, -85.871992) "></path>
                </g>
                <line x1="40" y1="1.87199204" x2="0" y2="80.871992" id="Path-2" stroke="url(#linearGradient-5)"></line>
            </g>
        </g>
    </g>
</svg>