<?xml version="1.0" encoding="UTF-8"?>
<svg viewBox="0 0 575.664 575.664" xmlns="http://www.w3.org/2000/svg" xmlns:xlink="http://www.w3.org/1999/xlink">
 <defs>
  <clipPath id="ab">
   <path transform="matrix(.4758 0 0 .4758 -77.473 277.56)" d="m1125.7 676.65a401.43 401.43 0 1 1 -802.86 0 401.43 401.43 0 1 1 802.86 0z"/>
  </clipPath>
  <clipPath id="aa">
   <path transform="matrix(.66512 0 0 .66512 -214.6 149.45)" d="m1125.7 676.65a401.43 401.43 0 1 1 -802.86 0 401.43 401.43 0 1 1 802.86 0z"/>
  </clipPath>
  <clipPath id="d">
   <path transform="matrix(1.1136 0 0 1.1136 -171.64 -44.741)" d="m1521.3 416.14a7.7782 7.7782 0 1 1 -15.556 0 7.7782 7.7782 0 1 1 15.556 0z"/>
  </clipPath>
  <filter id="x">
   <feGaussianBlur stdDeviation="18.714"/>
  </filter>
  <filter id="t">
   <feGaussianBlur stdDeviation="14.05"/>
  </filter>
  <filter id="s">
   <feGaussianBlur stdDeviation="4.551"/>
  </filter>
  <filter id="r">
   <feGaussianBlur stdDeviation="4.774"/>
  </filter>
  <filter id="q">
   <feGaussianBlur stdDeviation="5.841"/>
  </filter>
  <filter id="p">
   <feGaussianBlur stdDeviation=".801"/>
  </filter>
  <filter id="c">
   <feGaussianBlur stdDeviation=".396"/>
  </filter>
  <filter id="b">
   <feGaussianBlur stdDeviation=".324"/>
  </filter>
  <filter id="o">
   <feGaussianBlur stdDeviation="3.48"/>
  </filter>
  <filter id="z" x="-.996" y="-.996" width="2.992" height="2.992">
   <feGaussianBlur stdDeviation="31.421"/>
  </filter>
  <filter id="y" x="-.5433" y="-.5433" width="2.0865" height="2.0865">
   <feGaussianBlur stdDeviation="17.139"/>
  </filter>
  <filter id="w" x="-.2603" y="-.4111" width="1.5206" height="1.8222">
   <feGaussianBlur stdDeviation="37.685"/>
  </filter>
  <filter id="v" x="-.2543" y="-.3658" width="1.5086" height="1.7315">
   <feGaussianBlur stdDeviation="41.055"/>
  </filter>
  <filter id="u" x="-.8873" y="-.2288" width="2.7747" height="1.4575">
   <feGaussianBlur stdDeviation="24.402"/>
  </filter>
  <linearGradient id="e">
   <stop stop-color="#fff" offset="0"/>
   <stop stop-color="#fff" stop-opacity="0" offset="1"/>
  </linearGradient>
  <linearGradient id="g" x1="722.12" x2="724.29" y1="1065.5" y2="275.22" gradientUnits="userSpaceOnUse">
   <stop stop-color="#365047" offset="0"/>
   <stop stop-color="#1e2d28" offset="1"/>
  </linearGradient>
  <linearGradient id="n" x2="0" y1="1073.6" y2="275.09" gradientUnits="userSpaceOnUse">
   <stop stop-color="#415c53" offset="0"/>
   <stop stop-color="#131c19" offset="1"/>
  </linearGradient>
  <linearGradient id="m" x1="466.83" x2="71.695" y1="404.34" y2="793.25" gradientUnits="userSpaceOnUse">
   <stop stop-color="#657570" offset="0"/>
   <stop stop-color="#293b35" offset="1"/>
  </linearGradient>
  <linearGradient id="f" x1="975.53" x2="422" y1="357.7" y2="944.55" gradientUnits="userSpaceOnUse" xlink:href="#e"/>
  <radialGradient id="l" cx="724.29" cy="625.04" r="401.43" gradientUnits="userSpaceOnUse">
   <stop stop-color="#1e2f29" offset="0"/>
   <stop offset="1"/>
  </radialGradient>
  <radialGradient id="a" cx="1516" cy="412.78" r="8.7692" gradientUnits="userSpaceOnUse">
   <stop stop-color="#f9f9f9" offset="0"/>
   <stop stop-color="#333" offset="1"/>
  </radialGradient>
  <radialGradient id="k" cx="127.86" cy="494.5" r="51.715" gradientUnits="userSpaceOnUse" xlink:href="#e"/>
  <radialGradient id="j" cx="127.86" cy="494.51" r="66.793" gradientUnits="userSpaceOnUse" xlink:href="#e"/>
  <radialGradient id="i" cx="414.26" cy="422.4" r="320.69" gradientUnits="userSpaceOnUse" xlink:href="#e"/>
  <radialGradient id="h" cx="414.26" cy="422.4" r="308.65" gradientUnits="userSpaceOnUse" xlink:href="#e"/>
 </defs>
 <g transform="translate(-70.495 -266.13)">
  <path transform="matrix(2.3147 0 0 2.3147 1279.6 148.54)" d="m-282 175.15c0 64.065-51.935 116-116 116s-116-51.935-116-116 51.935-116 116-116 116 51.935 116 116z" filter="url(#o)" opacity=".5"/>
  <g transform="translate(96,-50)">
   <path transform="matrix(.66512 0 0 .66512 -214.6 149.45)" d="m1125.7 676.65c0 221.7-179.73 401.43-401.43 401.43s-401.43-179.73-401.43-401.43 179.73-401.43 401.43-401.43 401.43 179.73 401.43 401.43z" fill="#13221d"/>
   <path transform="matrix(.61032 0 0 .61032 -174.9 186.53)" d="m1125.7 676.65c0 221.7-179.73 401.43-401.43 401.43s-401.43-179.73-401.43-401.43 179.73-401.43 401.43-401.43 401.43 179.73 401.43 401.43z"/>
   <path transform="matrix(.59039 0 0 .59039 -160.47 200.02)" d="m1125.7 676.65c0 221.7-179.73 401.43-401.43 401.43s-401.43-179.73-401.43-401.43 179.73-401.43 401.43-401.43 401.43 179.73 401.43 401.43z" fill="#374641"/>
   <path transform="matrix(.52687 0 0 .52687 -114.46 243)" d="m1125.7 676.65c0 221.7-179.73 401.43-401.43 401.43s-401.43-179.73-401.43-401.43 179.73-401.43 401.43-401.43 401.43 179.73 401.43 401.43z" filter="url(#t)"/>
   <path transform="matrix(.52687 0 0 .52687 -114.46 243)" d="m1125.7 676.65c0 221.7-179.73 401.43-401.43 401.43s-401.43-179.73-401.43-401.43 179.73-401.43 401.43-401.43 401.43 179.73 401.43 401.43z" fill="url(#g)" stroke="#000" stroke-width="5.694"/>
   <path transform="matrix(.52687 0 0 .52687 -114.46 243)" d="m1125.7 676.65c0 221.7-179.73 401.43-401.43 401.43s-401.43-179.73-401.43-401.43 179.73-401.43 401.43-401.43 401.43 179.73 401.43 401.43z" fill="url(#g)"/>
   <path transform="matrix(.4758 0 0 .4758 -77.473 277.56)" d="m1125.7 676.65c0 221.7-179.73 401.43-401.43 401.43s-401.43-179.73-401.43-401.43 179.73-401.43 401.43-401.43 401.43 179.73 401.43 401.43z" fill="url(#n)"/>
   <g clip-path="url(#ab)" fill="#fff">
    <path d="m267.14 598.36 33 256h-66l33-256z" filter="url(#u)" opacity=".579"/>
    <path d="m-73 489.5 347.49 110-347.49 110v-220z" filter="url(#w)" opacity=".598"/>
    <path d="m644.49 462.81v269.38l-387.49-134.69 387.49-134.69z" filter="url(#v)" opacity=".532"/>
   </g>
   <path transform="matrix(.27294 0 0 .27294 69.955 414.32)" d="m724.28 258.47c-230.65 0-418.19 187.54-418.19 418.19s187.54 418.16 418.19 418.16 418.19-187.51 418.19-418.16-187.54-418.19-418.19-418.19z" fill="#2e453d" filter="url(#x)" opacity=".585"/>
   <path transform="matrix(.27402 0 0 .27402 68.673 414.09)" d="m1125.7 676.65c0 221.7-179.73 401.43-401.43 401.43s-401.43-179.73-401.43-401.43 179.73-401.43 401.43-401.43 401.43 179.73 401.43 401.43z" fill="url(#l)"/>
   <path transform="matrix(.79359 0 0 .79359 164.22 138.16)" d="m165.71 494.5c0 20.908-16.949 37.857-37.857 37.857s-37.857-16.949-37.857-37.857 16.949-37.857 37.857-37.857 37.857 16.949 37.857 37.857z" fill="url(#k)" filter="url(#y)"/>
   <path transform="matrix(.4758 0 0 .4758 -77.473 277.56)" d="m724.28 278.69c-219.71 0-397.97 178.26-397.97 397.97s178.26 397.94 397.97 397.94 397.97-178.22 397.97-397.94-178.26-397.97-397.97-397.97z" fill="none" opacity=".2" stroke="#fff" stroke-width="6.3052"/>
   <path transform="matrix(.43287 0 0 .43287 266.91 346.58)" d="m165.71 494.5c0 20.908-16.949 37.857-37.857 37.857s-37.857-16.949-37.857-37.857 16.949-37.857 37.857-37.857 37.857 16.949 37.857 37.857z" fill="url(#j)" filter="url(#z)"/>
   <path transform="matrix(-.98496 0 0 -.98496 530.29 1190)" d="m267.16 371.97c-125.7 0-227.53 101.83-227.53 227.53s101.83 227.53 227.53 227.53 227.53-101.83 227.53-227.53-101.83-227.53-227.53-227.53zm0 6.5625c121.87 0 220.97 99.095 220.97 220.97s-99.095 220.97-220.97 220.97-220.97-99.095-220.97-220.97 99.095-220.97 220.97-220.97z" fill="url(#i)" filter="url(#r)"/>
   <path transform="matrix(1.0333 0 0 1.0333 -8.8966 -19.964)" d="m267.16 371.97c-125.7 0-227.53 101.83-227.53 227.53s101.83 227.53 227.53 227.53 227.53-101.83 227.53-227.53-101.83-227.53-227.53-227.53zm0 6.5625c121.87 0 220.97 99.095 220.97 220.97s-99.095 220.97-220.97 220.97-220.97-99.095-220.97-220.97 99.095-220.97 220.97-220.97z" fill="url(#h)" filter="url(#s)"/>
   <path d="m267.16 332.5c-147.38 0-267 119.62-267 267s119.62 267 267 267 267-119.62 267-267-119.62-267-267-267zm0 30c130.82 0 237 106.18 237 237s-106.18 237-237 237-237-106.18-237-237 106.18-237 237-237z" clip-path="url(#aa)" filter="url(#q)"/>
   <path d="m267.14 332.5c-147.38 0-267 119.62-267 267s119.62 267 267 267 267-119.62 267-267-119.62-267-267-267zm0 30c130.82 0 237 106.18 237 237s-106.18 237-237 237-237-106.18-237-237 106.18-237 237-237z" fill="url(#m)"/>
   <path transform="matrix(.66512 0 0 .66512 -214.6 149.45)" d="m724.28 278.22c-219.97 0-398.44 178.47-398.44 398.44s178.47 398.41 398.44 398.41 398.44-178.44 398.44-398.41-178.47-398.44-398.44-398.44z" fill="none" opacity=".421" stroke="url(#f)" stroke-width="6.0139"/>
   <path transform="matrix(-.66512 0 0 -.66512 748.88 1049.6)" d="m724.28 317.19c-198.89 0-359.47 160.57-359.47 359.47s160.57 359.44 359.47 359.44 359.47-160.54 359.47-359.44-160.57-359.47-359.47-359.47z" fill="none" opacity=".421" stroke="url(#f)" stroke-width="6.0139"/>
   <g transform="translate(-1118.3 -.2596)">
    <path d="m1385.8 332.5c-4.7439 0-9.4731 0.1302-14.156 0.375v11.25c0 5.54 4.46 10 10 10h8.2813c5.54 0 10-4.46 10-10v-11.25c-4.6826-0.2447-9.3818-0.375-14.125-0.375zm178.47 68.5-7.9062 7.9063c-3.9174 3.9174-3.9174 10.208 0 14.125l5.875 5.875c3.9173 3.9174 10.239 3.9174 14.156 0l7.9063-7.9063c-6.3168-7.0198-13.011-13.683-20.031-20zm-356.97 0.0312c-7.0091 6.308-13.692 12.96-20 19.969l7.9062 7.9063c3.9174 3.9174 10.239 3.9174 14.156 0l5.8437-5.8438c3.9174-3.9174 3.9174-10.208 0-14.125l-7.9062-7.9063zm-88.125 184.31c-0.2458 4.6929-0.375 9.4025-0.375 14.156 0 4.7438 0.1302 9.473 0.375 14.156h11.219c5.54 0 10-4.46 10-10v-8.3125c0-5.54-4.46-10-10-10h-11.219zm522 0c-5.54 0-10 4.46-10 10v8.3125c0 5.54 4.46 10 10 10h11.219c0.2448-4.6833 0.4063-9.4124 0.4063-14.156 0-4.7537-0.1605-9.4634-0.4063-14.156h-11.219zm-438.91 181.78c-2.5562 0-5.1351 1.0101-7.0937 2.9688l-7.9063 7.9063c6.3141 7.0171 13.015 13.685 20.031 20l7.9062-7.9063c3.9174-3.9174 3.9174-10.208 0-14.125l-5.875-5.875c-1.9587-1.9587-4.5063-2.9688-7.0625-2.9688zm367.03 0c-2.5562 0-5.1351 1.0101-7.0938 2.9688l-5.8437 5.8438c-3.9174 3.9174-3.9174 10.208 0 14.125l7.9375 7.9375c7.0051-6.3053 13.664-12.994 19.969-20l-7.9062-7.9063c-1.9587-1.9587-4.5063-2.9688-7.0625-2.9688zm-187.66 77.75c-5.54 0-10 4.46-10 10v11.25c4.6832 0.2448 9.4124 0.375 14.156 0.375s9.4424-0.1303 14.125-0.375v-11.25c0-5.54-4.46-10-10-10h-8.2813z"/>
    <path d="m1371.9 333.56-1.4062 0.0625v11.25c0 5.54 4.46 10 10 10h8.2812c3.1163 0 5.8876-1.4042 7.7188-3.625-1.7174 1.3912-3.9201 2.2188-6.3125 2.2188h-8.2813c-5.5399 0-10-4.46-10-10v-9.9063zm184.72 74.688-1.4062 1.4063c-3.9175 3.9174-3.9175 10.208 0 14.125l5.875 5.875c3.9173 3.9174 10.239 3.9174 14.156 0l1.4062-1.4063c-3.9173 3.9174-10.239 3.9174-14.156 0l-5.875-5.875c-3.9174-3.9174-3.9174-10.208 0-14.125zm-370.47 13.5 7.9063 7.9063c3.9174 3.9174 10.239 3.9174 14.156 0l1.4062-1.4063c-3.9174 3.9174-10.239 3.9174-14.156 0l-7.9063-7.9063-1.4063 1.4063zm-68.125 192.66h11.219c3.1163 0 5.8875-1.4042 7.7188-3.625-1.7174 1.3912-3.9202 2.2188-6.3126 2.2188h-11.219l-1.4063 1.4063zm515.62-26.031c-2.2207 1.8313-3.625 4.6025-3.625 7.7188v8.3125c0 5.54 4.4601 10 10 10h11.219c0.024-0.4663 0.04-0.939 0.062-1.4063h-9.875c-5.54 0-10-4.46-10-10v-8.3125c0-2.3924 0.8275-4.5951 2.2187-6.3125h5e-4zm-77.031 186.91-1.4062 1.4063c-3.9175 3.9174-3.9175 10.208 0 14.125l7.9374 7.9375 1.4063-1.4063-7.9375-7.9375c-3.9174-3.9174-3.9174-10.208 0-14.125zm-182.5 72.625c-2.2208 1.8313-3.625 4.6025-3.625 7.7188v11.25l1.4062-1.4063v-11.25c0-2.3924 0.8276-4.5951 2.2188-6.3125z" fill="#fff" filter="url(#p)"/>
   </g>
   <g transform="translate(-1247 -75.034)">
    <path transform="matrix(1.1136 0 0 1.1136 -171.45 -45.497)" d="m1521.3 416.14c0 4.2958-3.4824 7.7782-7.7782 7.7782s-7.7782-3.4824-7.7782-7.7782 3.4824-7.7782 7.7782-7.7782 7.7782 3.4824 7.7782 7.7782z" fill="url(#a)"/>
    <path transform="translate(.196,-.7565)" d="m1507.2 413.22c-1.2265 1.4947-1.9688 3.3859-1.9688 5.4688 0 4.7815 3.8748 8.6563 8.6562 8.6563 2.8911 0 5.4576-1.415 7.0313-3.5938-1.5883 1.8193-3.9284 2.9688-6.5313 2.9688-4.7814 0-8.6562-3.8748-8.6562-8.6563 0-1.7931 0.5345-3.4612 1.4688-4.8438z" clip-path="url(#d)" fill="#fff" filter="url(#c)" opacity=".709"/>
    <g transform="matrix(.94074 0 0 .94074 89.9 24.062)" fill="none" stroke="#333" stroke-width="2">
     <path d="m1513.9 411.38v14.625"/>
     <path d="m1521.2 418.69h-14.625"/>
    </g>
    <path transform="matrix(.94074 0 0 .94074 89.811 24.15)" d="m1512.8 412.25v6.5h-6.3126v1h6.3126v6.3438h1v-6.3438h6.4687v-1h-6.4687v-6.5h-1z" fill="#f9f9f9" filter="url(#b)" opacity=".522"/>
    <path transform="matrix(1.1136 0 0 1.1136 85.159 211.11)" d="m1521.3 416.14c0 4.2958-3.4824 7.7782-7.7782 7.7782s-7.7782-3.4824-7.7782-7.7782 3.4824-7.7782 7.7782-7.7782 7.7782 3.4824 7.7782 7.7782z" fill="url(#a)"/>
    <path transform="translate(256.8 255.85)" d="m1507.2 413.22c-1.2265 1.4947-1.9688 3.3859-1.9688 5.4688 0 4.7815 3.8748 8.6563 8.6562 8.6563 2.8911 0 5.4576-1.415 7.0313-3.5938-1.5883 1.8193-3.9284 2.9688-6.5313 2.9688-4.7814 0-8.6562-3.8748-8.6562-8.6563 0-1.7931 0.5345-3.4612 1.4688-4.8438z" clip-path="url(#d)" fill="#fff" filter="url(#c)" opacity=".709"/>
    <g transform="matrix(.94074 0 0 .94074 346.5 280.67)" fill="none" stroke="#333" stroke-width="2">
     <path d="m1513.9 411.38v14.625"/>
     <path d="m1521.2 418.69h-14.625"/>
    </g>
    <path transform="matrix(.94074 0 0 .94074 346.42 280.75)" d="m1512.8 412.25v6.5h-6.3126v1h6.3126v6.3438h1v-6.3438h6.4687v-1h-6.4687v-6.5h-1z" fill="#f9f9f9" filter="url(#b)" opacity=".522"/>
    <path transform="matrix(1.1136 0 0 1.1136 -171.45 467.71)" d="m1521.3 416.14c0 4.2958-3.4824 7.7782-7.7782 7.7782s-7.7782-3.4824-7.7782-7.7782 3.4824-7.7782 7.7782-7.7782 7.7782 3.4824 7.7782 7.7782z" fill="url(#a)"/>
    <path transform="translate(.1961 512.45)" d="m1507.2 413.22c-1.2265 1.4947-1.9688 3.3859-1.9688 5.4688 0 4.7815 3.8748 8.6563 8.6562 8.6563 2.8911 0 5.4576-1.415 7.0313-3.5938-1.5883 1.8193-3.9284 2.9688-6.5313 2.9688-4.7814 0-8.6562-3.8748-8.6562-8.6563 0-1.7931 0.5345-3.4612 1.4688-4.8438z" clip-path="url(#d)" fill="#fff" filter="url(#c)" opacity=".709"/>
    <g transform="matrix(.94074 0 0 .94074 89.9 537.27)" fill="none" stroke="#333" stroke-width="2">
     <path d="m1513.9 411.38v14.625"/>
     <path d="m1521.2 418.69h-14.625"/>
    </g>
    <path transform="matrix(.94074 0 0 .94074 89.812 537.36)" d="m1512.8 412.25v6.5h-6.3126v1h6.3126v6.3438h1v-6.3438h6.4687v-1h-6.4687v-6.5h-1z" fill="#f9f9f9" filter="url(#b)" opacity=".522"/>
    <path transform="matrix(1.1136 0 0 1.1136 -428.05 211.11)" d="m1521.3 416.14c0 4.2958-3.4824 7.7782-7.7782 7.7782s-7.7782-3.4824-7.7782-7.7782 3.4824-7.7782 7.7782-7.7782 7.7782 3.4824 7.7782 7.7782z" fill="url(#a)"/>
    <path transform="translate(-256.41 255.85)" d="m1507.2 413.22c-1.2265 1.4947-1.9688 3.3859-1.9688 5.4688 0 4.7815 3.8748 8.6563 8.6562 8.6563 2.8911 0 5.4576-1.415 7.0313-3.5938-1.5883 1.8193-3.9284 2.9688-6.5313 2.9688-4.7814 0-8.6562-3.8748-8.6562-8.6563 0-1.7931 0.5345-3.4612 1.4688-4.8438z" clip-path="url(#d)" fill="#fff" filter="url(#c)" opacity=".709"/>
    <g transform="matrix(.94074 0 0 .94074 -166.7 280.67)" fill="none" stroke="#333" stroke-width="2">
     <path d="m1513.9 411.38v14.625"/>
     <path d="m1521.2 418.69h-14.625"/>
    </g>
    <path transform="matrix(.94074 0 0 .94074 -166.79 280.75)" d="m1512.8 412.25v6.5h-6.3126v1h6.3126v6.3438h1v-6.3438h6.4687v-1h-6.4687v-6.5h-1z" fill="#f9f9f9" filter="url(#b)" opacity=".522"/>
    <path transform="matrix(1.1136 0 0 1.1136 -352.89 29.66)" d="m1521.3 416.14c0 4.2958-3.4824 7.7782-7.7782 7.7782s-7.7782-3.4824-7.7782-7.7782 3.4824-7.7782 7.7782-7.7782 7.7782 3.4824 7.7782 7.7782z" fill="url(#a)"/>
    <path transform="translate(-181.25 74.401)" d="m1507.2 413.22c-1.2265 1.4947-1.9688 3.3859-1.9688 5.4688 0 4.7815 3.8748 8.6563 8.6562 8.6563 2.8911 0 5.4576-1.415 7.0313-3.5938-1.5883 1.8193-3.9284 2.9688-6.5313 2.9688-4.7814 0-8.6562-3.8748-8.6562-8.6563 0-1.7931 0.5345-3.4612 1.4688-4.8438z" clip-path="url(#d)" fill="#fff" filter="url(#c)" opacity=".709"/>
    <g transform="matrix(.94074 0 0 .94074 -91.547 99.219)" fill="none" stroke="#333" stroke-width="2">
     <path d="m1513.9 411.38v14.625"/>
     <path d="m1521.2 418.69h-14.625"/>
    </g>
    <path transform="matrix(.94074 0 0 .94074 -91.636 99.308)" d="m1512.8 412.25v6.5h-6.3126v1h6.3126v6.3438h1v-6.3438h6.4687v-1h-6.4687v-6.5h-1z" fill="#f9f9f9" filter="url(#b)" opacity=".522"/>
    <path transform="matrix(1.1136 0 0 1.1136 10.001 29.66)" d="m1521.3 416.14c0 4.2958-3.4824 7.7782-7.7782 7.7782s-7.7782-3.4824-7.7782-7.7782 3.4824-7.7782 7.7782-7.7782 7.7782 3.4824 7.7782 7.7782z" fill="url(#a)"/>
    <path transform="translate(181.64 74.401)" d="m1507.2 413.22c-1.2265 1.4947-1.9688 3.3859-1.9688 5.4688 0 4.7815 3.8748 8.6563 8.6562 8.6563 2.8911 0 5.4576-1.415 7.0313-3.5938-1.5883 1.8193-3.9284 2.9688-6.5313 2.9688-4.7814 0-8.6562-3.8748-8.6562-8.6563 0-1.7931 0.5345-3.4612 1.4688-4.8438z" clip-path="url(#d)" fill="#fff" filter="url(#c)" opacity=".709"/>
    <g transform="matrix(.94074 0 0 .94074 271.35 99.219)" fill="none" stroke="#333" stroke-width="2">
     <path d="m1513.9 411.38v14.625"/>
     <path d="m1521.2 418.69h-14.625"/>
    </g>
    <path transform="matrix(.94074 0 0 .94074 271.26 99.308)" d="m1512.8 412.25v6.5h-6.3126v1h6.3126v6.3438h1v-6.3438h6.4687v-1h-6.4687v-6.5h-1z" fill="#f9f9f9" filter="url(#b)" opacity=".522"/>
    <path transform="matrix(1.1136 0 0 1.1136 10.001 392.55)" d="m1521.3 416.14c0 4.2958-3.4824 7.7782-7.7782 7.7782s-7.7782-3.4824-7.7782-7.7782 3.4824-7.7782 7.7782-7.7782 7.7782 3.4824 7.7782 7.7782z" fill="url(#a)"/>
    <path transform="translate(181.64 437.3)" d="m1507.2 413.22c-1.2265 1.4947-1.9688 3.3859-1.9688 5.4688 0 4.7815 3.8748 8.6563 8.6562 8.6563 2.8911 0 5.4576-1.415 7.0313-3.5938-1.5883 1.8193-3.9284 2.9688-6.5313 2.9688-4.7814 0-8.6562-3.8748-8.6562-8.6563 0-1.7931 0.5345-3.4612 1.4688-4.8438z" clip-path="url(#d)" fill="#fff" filter="url(#c)" opacity=".709"/>
    <g transform="matrix(.94074 0 0 .94074 271.35 462.11)" fill="none" stroke="#333" stroke-width="2">
     <path d="m1513.9 411.38v14.625"/>
     <path d="m1521.2 418.69h-14.625"/>
    </g>
    <path transform="matrix(.94074 0 0 .94074 271.26 462.2)" d="m1512.8 412.25v6.5h-6.3126v1h6.3126v6.3438h1v-6.3438h6.4687v-1h-6.4687v-6.5h-1z" fill="#f9f9f9" filter="url(#b)" opacity=".522"/>
    <path transform="matrix(1.1136 0 0 1.1136 -352.89 392.55)" d="m1521.3 416.14c0 4.2958-3.4824 7.7782-7.7782 7.7782s-7.7782-3.4824-7.7782-7.7782 3.4824-7.7782 7.7782-7.7782 7.7782 3.4824 7.7782 7.7782z" fill="url(#a)"/>
    <path transform="translate(-181.25 437.3)" d="m1507.2 413.22c-1.2265 1.4947-1.9688 3.3859-1.9688 5.4688 0 4.7815 3.8748 8.6563 8.6562 8.6563 2.8911 0 5.4576-1.415 7.0313-3.5938-1.5883 1.8193-3.9284 2.9688-6.5313 2.9688-4.7814 0-8.6562-3.8748-8.6562-8.6563 0-1.7931 0.5345-3.4612 1.4688-4.8438z" clip-path="url(#d)" fill="#fff" filter="url(#c)" opacity=".709"/>
    <g transform="matrix(.94074 0 0 .94074 -91.547 462.11)" fill="none" stroke="#333" stroke-width="2">
     <path d="m1513.9 411.38v14.625"/>
     <path d="m1521.2 418.69h-14.625"/>
    </g>
    <path transform="matrix(.94074 0 0 .94074 -91.636 462.2)" d="m1512.8 412.25v6.5h-6.3126v1h6.3126v6.3438h1v-6.3438h6.4687v-1h-6.4687v-6.5h-1z" fill="#f9f9f9" filter="url(#b)" opacity=".522"/>
   </g>
  </g>
 </g>
</svg>
