<svg width="115" height="114" viewBox="0 0 115 114" fill="none" xmlns="http://www.w3.org/2000/svg">
<g filter="url(#filter0_f)">
<path d="M69.6503 34.2528C66.0519 29.9615 60.1062 27.7073 53.1058 28.6897C52.4233 28.7827 51.7512 28.9172 51.0895 29.0619L50.4897 29.2067L49.7452 29.3928L48.8663 29.672L48.5974 29.7547C48.1114 29.9202 47.6358 30.0856 47.1705 30.2717L46.8499 30.4165C46.519 30.5509 46.1881 30.706 45.8159 30.8611C45.4436 31.0162 45.3299 31.0679 45.0817 31.192L44.7405 31.3781C44.482 31.5022 44.2338 31.647 43.9753 31.7814C43.7168 31.9158 43.541 32.0089 43.3239 32.1433C43.1067 32.2778 42.993 32.3501 42.8172 32.4535L42.1657 32.8672L41.7314 33.136L40.9559 33.7047L40.4492 34.0666L40.2631 34.2011C39.7875 34.563 39.3222 34.9456 38.8672 35.3385L38.6811 35.5039C38.2985 35.8452 37.9262 36.1864 37.5643 36.538L37.3575 36.7551L36.8508 37.2721C36.6647 37.479 36.4579 37.6754 36.2717 37.8822L35.9305 38.2855L35.3825 38.9369L34.9999 39.3919C34.8655 39.5573 34.7517 39.7331 34.6276 39.9089C34.5035 40.0847 34.214 40.457 34.0279 40.7361C33.8418 41.0153 33.8314 40.9843 33.7384 41.1187C33.6453 41.2532 33.5522 41.4393 33.4592 41.5944C33.1903 42.008 32.9318 42.432 32.694 42.8559C32.6009 43.011 32.4975 43.1558 32.4148 43.3109C32.3321 43.466 32.2494 43.6625 32.1563 43.8279L31.8151 44.5207C31.6186 44.924 31.4428 45.3376 31.267 45.7512C31.1843 45.9684 31.0809 46.1855 30.9982 46.4026L30.8948 46.6612C30.7087 47.1678 30.5432 47.6952 30.3881 48.2019C30.3881 48.2949 30.3881 48.388 30.3157 48.4914C30.171 49.0188 30.0365 49.5254 29.9331 50.1045L29.8401 50.6112C29.7263 51.2419 29.6332 51.8727 29.5815 52.5138C29.5815 52.7516 29.5815 52.9895 29.5815 53.2169C29.5815 53.4444 29.5815 53.5995 29.5815 53.7856C29.5815 53.9718 29.5815 54.3337 29.5815 54.5922C29.5815 54.8507 29.5816 55.2023 29.6333 55.4918C29.685 55.7813 29.6333 56.0192 29.6953 56.2777C29.6902 56.3672 29.6902 56.457 29.6953 56.5465C29.6953 56.9188 29.7987 57.291 29.8711 57.6529C29.8711 57.6529 29.8711 57.6529 29.8711 57.7046C29.9331 58.0355 30.0055 58.3561 30.0882 58.6766C30.0882 58.7594 30.1503 58.8421 30.1709 58.9351C30.264 59.266 30.3778 59.5866 30.4915 59.9071C30.4915 60.0622 30.5846 60.2173 30.6363 60.3724C30.6596 60.433 30.6872 60.4917 30.719 60.5482C30.812 60.7964 30.9361 61.0342 31.0395 61.2721C31.1429 61.5099 31.1947 61.634 31.2774 61.8098C31.3601 61.9855 31.3498 61.9235 31.3808 61.9752C31.4844 62.1807 31.5983 62.3809 31.722 62.5749C31.8151 62.7507 31.9081 62.9265 32.0219 63.1023C32.0598 63.1633 32.1012 63.222 32.146 63.2781C32.27 63.4642 32.3941 63.64 32.5285 63.8158C32.663 63.9916 32.7353 64.126 32.8491 64.2707L33.1696 64.674L45.2575 79.1505C45.03 78.8817 44.8232 78.5818 44.6164 78.2923C44.4096 78.0027 44.3579 77.9407 44.2338 77.7546C44.1097 77.5684 43.9443 77.2892 43.8099 77.0514C43.6754 76.8136 43.572 76.6585 43.4583 76.4517C43.3445 76.2449 43.2411 75.9864 43.1274 75.7485C43.0136 75.5107 42.8999 75.2729 42.8068 75.0247C42.7138 74.7765 42.6517 74.6008 42.5794 74.3836C42.507 74.1665 42.3519 73.7425 42.2588 73.4013C42.1657 73.06 42.0416 72.6051 41.9589 72.1914C41.9589 72.1914 41.9589 72.1914 41.9589 72.1294C41.8762 71.6744 41.8142 71.2195 41.7521 70.7541C41.7521 70.4956 41.7521 70.2268 41.6901 69.9683C41.6281 69.7098 41.6901 69.3789 41.6384 69.079C41.5867 68.7791 41.6384 68.531 41.6384 68.2621C41.6384 67.8382 41.6384 67.4246 41.6901 66.9903C41.6901 66.3492 41.8349 65.7184 41.9486 65.0876L42.0417 64.581C42.1451 64.0329 42.2795 63.4952 42.4243 62.9679C42.4243 62.8645 42.476 62.7714 42.4966 62.6783C42.6724 62.0683 42.8792 61.4685 43.1067 60.8791C43.1894 60.662 43.2929 60.4448 43.3756 60.2277C43.5514 59.8141 43.7271 59.4005 43.9236 58.9972L44.2648 58.3044C44.4303 57.9735 44.6164 57.6529 44.8025 57.3324C44.9886 57.0118 45.2989 56.4845 45.5677 56.0709C45.8366 55.6573 45.94 55.4918 46.1364 55.2126C46.3329 54.9334 46.5294 54.6542 46.7362 54.3854C46.943 54.1165 47.2325 53.7339 47.491 53.4134L48.039 52.762C48.3389 52.4207 48.6491 52.0795 48.9594 51.7279C49.2696 51.3764 49.2902 51.3764 49.466 51.2109C49.89 50.787 50.3346 50.363 50.7896 49.9597L50.9757 49.7943C51.4927 49.3393 52.0097 48.905 52.5888 48.4914C52.7542 48.3673 52.9197 48.2432 53.0955 48.1295C53.4884 47.84 53.8917 47.5608 54.3053 47.2919L54.9567 46.8783C55.3393 46.6508 55.7219 46.4233 56.1148 46.2062C56.5078 45.989 56.6215 45.927 56.8801 45.8029C57.1386 45.6788 57.5935 45.4514 57.9141 45.2859C58.2346 45.1205 58.5759 44.9757 58.9481 44.8413C59.5272 44.6034 60.1062 44.3759 60.6956 44.1795L60.9645 44.0968C61.5022 43.921 61.9985 43.7762 62.5879 43.6418L63.1876 43.4867C63.8494 43.3419 64.5215 43.2075 65.204 43.1144C72.1631 42.1321 78.1087 44.3863 81.7485 48.6775L69.6503 34.2528Z" fill="url(#paint0_linear)"/>
<path d="M114 54.0649C114 53.703 114 53.341 114 52.9791C114 52.6172 114 52.369 114 52.0588V51.0248L113.938 50.1149C113.938 49.7736 113.886 49.4324 113.855 49.0808C113.824 48.7293 113.793 48.4811 113.762 48.1812C113.731 47.8813 113.762 47.7366 113.69 47.5194C113.617 47.3023 113.69 47.3437 113.69 47.2506C113.586 46.5474 113.473 45.8443 113.338 45.1825C113.338 45.1308 113.338 45.0791 113.338 45.0378C113.193 44.2933 113.018 43.5694 112.832 42.8559C112.832 42.7836 112.832 42.7112 112.78 42.6388C112.728 42.5664 112.676 42.2872 112.625 42.1114C112.521 41.7288 112.418 41.3566 112.294 40.9843C112.17 40.6121 112.128 40.4673 112.035 40.2088C111.942 39.9503 111.787 39.485 111.663 39.1748L111.518 38.7715C111.518 38.6371 111.405 38.513 111.353 38.3786C111.239 38.0891 111.115 37.8099 111.001 37.5307L110.629 36.7035C110.505 36.4346 110.371 36.1554 110.236 35.8866L109.864 35.3902C109.791 35.2661 109.719 35.1421 109.657 35.0076L109.264 34.2942C109.119 34.015 108.964 33.7461 108.799 33.4773L108.385 32.7845L108.168 32.4329C108.075 32.2778 107.972 32.1434 107.879 31.9883L107.444 31.3575C107.265 31.0886 107.079 30.8301 106.886 30.582L106.441 29.9719L106.255 29.7341C106.017 29.4135 105.759 29.1033 105.511 28.8034L93.4227 14.327C93.7433 14.6992 94.0432 15.0921 94.3534 15.4954L94.798 16.1055C94.9979 16.3537 95.184 16.6122 95.3564 16.881L95.7907 17.5118L96.2974 18.308C96.4421 18.5355 96.5765 18.7733 96.711 19.0008C96.8454 19.2283 97.0315 19.5385 97.1763 19.8177L97.5692 20.5312L97.9725 21.348C98.1069 21.6169 98.2413 21.8961 98.3654 22.1649L98.7377 22.9922C98.8514 23.2713 98.9755 23.5505 99.0892 23.8401L99.3995 24.6363C99.5235 24.9879 99.658 25.3498 99.7717 25.6703C99.8854 25.9909 99.9475 26.1873 100.03 26.4458C100.113 26.7043 100.258 27.1903 100.361 27.5729C100.465 27.9555 100.506 28.0693 100.568 28.3174C100.754 29.0309 100.93 29.7547 101.075 30.4889C101.075 30.5406 101.075 30.5923 101.075 30.644C101.209 31.3368 101.323 32.04 101.426 32.7121C101.426 33.0223 101.499 33.3325 101.54 33.6427C101.581 33.9529 101.612 34.2424 101.633 34.5423C101.654 34.8422 101.695 35.2248 101.716 35.5763L101.778 36.4863V37.5203C101.778 37.8202 101.778 38.1304 101.778 38.4406C101.778 38.7508 101.778 39.1541 101.778 39.4747C101.778 39.7952 101.778 40.0951 101.778 40.4156C101.778 41.0257 101.716 41.6461 101.664 42.2665C101.612 42.887 101.519 43.7452 101.426 44.4794C101.426 44.6758 101.426 44.8723 101.343 45.0688C101.25 45.6995 101.157 46.32 101.044 46.9404L100.982 47.2919C100.847 48.0158 100.692 48.7396 100.527 49.4531C100.527 49.6392 100.444 49.815 100.392 49.9908C100.247 50.5802 100.103 51.1592 99.9371 51.7486C99.9371 51.9141 99.8441 52.0692 99.8027 52.2346C99.5959 52.9481 99.3684 53.6512 99.1409 54.3027L98.9858 54.737C98.7997 55.285 98.5929 55.771 98.3861 56.3708C98.2827 56.6396 98.1793 56.9188 98.0655 57.1877C97.8794 57.6633 97.6829 58.1493 97.4761 58.6146C97.3624 58.8731 97.259 59.1213 97.1453 59.3695C96.8971 59.9382 96.6386 60.4966 96.3594 61.0446C96.287 61.1997 96.225 61.3548 96.1423 61.5099C95.801 62.2027 95.4391 62.8955 95.1082 63.578C94.7773 64.2604 94.1983 65.1911 93.7226 65.9769L93.4331 66.4422C93.0401 67.073 92.6369 67.7038 92.2233 68.3242C91.9648 68.7275 91.6959 69.1101 91.4167 69.503L90.8066 70.3819C90.5068 70.7852 90.1966 71.1885 89.8967 71.6021C89.5968 72.0157 89.4934 72.1398 89.2763 72.4086C88.7799 73.0394 88.2422 73.6805 87.7459 74.3009L87.4874 74.6008C87.0531 75.0971 86.6188 75.6348 86.1742 76.0794C85.3366 77.0101 84.468 77.9097 83.5787 78.7886C83.3926 78.9851 83.1961 79.1712 82.9997 79.3573C82.1207 80.2052 81.2211 81.0428 80.2905 81.8493L80.0734 82.0355C79.2048 82.78 78.3155 83.5038 77.4055 84.207L76.7748 84.7033C75.8131 85.4374 74.8308 86.1509 73.8278 86.8334L72.2044 87.8674L71.8942 88.0742C71.2117 88.4982 70.5189 88.9118 69.8261 89.3254L69.0919 89.7287C68.6059 90.0079 68.1303 90.2767 67.6443 90.5352L66.786 90.9695L65.4625 91.6416L64.325 92.1793L63.0945 92.7274L61.9364 93.2237L60.7783 93.689C60.1682 93.9269 59.5581 94.144 58.9377 94.3612L58.0174 94.6921C57.2109 94.9609 56.394 95.2194 55.5771 95.4572L55.2255 95.5606L55.0084 95.6227C54.3156 95.8088 53.6228 95.9949 52.9403 96.1604L52.2269 96.3258C51.6685 96.4499 51.0997 96.574 50.531 96.6774L49.8382 96.8222C49.0627 96.9566 48.2768 97.091 47.5013 97.2048C43.6694 97.7524 39.788 97.8669 35.9305 97.546C34.1312 97.3837 32.3428 97.1178 30.5742 96.7498C25.5786 95.7236 20.8325 93.7283 16.6044 90.8765C13.9217 89.0527 11.5033 86.8675 9.41785 84.3827L21.5057 98.8592C29.778 108.755 43.5203 113.935 59.5892 111.681C60.3647 111.567 61.1506 111.433 61.9261 111.299L62.6189 111.164L64.325 110.802L65.0282 110.637C65.721 110.471 66.4138 110.296 67.0963 110.099L67.3237 110.037L67.6133 109.944C68.4405 109.706 69.2574 109.448 70.0742 109.179L70.9946 108.858C71.6046 108.631 72.2251 108.414 72.8351 108.176L73.2798 108.01L73.9932 107.711L75.1514 107.214L76.3819 106.666L77.5193 106.128L77.9846 105.901C78.2742 105.767 78.5533 105.611 78.8429 105.467L79.7011 105.012C80.1871 104.753 80.6628 104.495 81.1488 104.215L81.8726 103.812L82.0484 103.709C82.6895 103.337 83.3202 102.954 83.951 102.561L84.2612 102.354C84.7472 102.044 85.2332 101.734 85.7089 101.413L85.8743 101.289C86.9083 100.607 87.87 99.8932 88.8316 99.1591C88.9247 99.0867 89.0178 99.035 89.1005 98.9626L89.4624 98.6731C90.3723 97.9596 91.2616 97.2461 92.1302 96.4913L92.306 96.3465C93.2366 95.5399 94.1362 94.7127 95.0152 93.8545L95.3254 93.5649L95.5942 93.2858C96.4835 92.4068 97.3521 91.5072 98.1896 90.5869C98.2249 90.5465 98.2629 90.5085 98.3034 90.4732C98.7067 90.0182 99.1099 89.5529 99.5029 89.0876C99.5856 88.9842 99.6786 88.8911 99.7614 88.798C100.258 88.2086 100.744 87.6089 101.219 87.0092L101.302 86.9058L101.902 86.0992C102.212 85.6959 102.522 85.2927 102.822 84.8791L103.432 84.0001C103.66 83.6692 103.897 83.3487 104.115 83.0282L104.239 82.8213C104.652 82.2009 105.056 81.5702 105.449 80.9394L105.738 80.4741C106.214 79.6882 106.679 78.8817 107.113 78.0751L107.175 77.9717C107.537 77.3203 107.868 76.6585 108.209 75.9967C108.292 75.8416 108.354 75.6865 108.427 75.5314C108.706 74.9834 108.964 74.425 109.212 73.8563C109.326 73.6081 109.43 73.3599 109.543 73.1014C109.75 72.6361 109.947 72.1501 110.133 71.6745C110.246 71.4056 110.35 71.1264 110.453 70.8576C110.557 70.5887 110.619 70.4543 110.691 70.2475L111.053 69.2135C111.053 69.0687 111.156 68.9239 111.198 68.7792C111.436 68.076 111.663 67.3729 111.87 66.6594C111.87 66.494 111.953 66.3389 112.004 66.1734C112.17 65.584 112.315 65.005 112.459 64.4156C112.511 64.2398 112.552 64.064 112.594 63.8778C112.759 63.1644 112.914 62.4405 113.049 61.7167L113.111 61.3651C113.224 60.7447 113.318 60.1243 113.411 59.4935C113.411 59.2971 113.462 59.1006 113.493 58.9042C113.586 58.17 113.669 57.4358 113.731 56.6913C113.731 56.1433 113.814 55.5952 113.835 55.0575C113.83 54.9818 113.83 54.9058 113.835 54.8301C113.938 54.675 113.938 54.3751 114 54.0649Z" fill="url(#paint1_linear)"/>
<path d="M55.3703 1.52562C83.1444 -2.38303 103.898 15.9297 101.726 42.4113C99.5546 68.8929 75.2755 93.5339 47.5117 97.4322C19.7479 101.331 -1.01554 83.0282 1.15593 56.5362C3.3274 30.0443 27.5962 5.40324 55.3703 1.52562ZM49.7348 70.2785C61.7606 68.593 72.3078 57.8701 73.2487 46.413C74.1897 34.9559 65.1626 26.9939 53.1471 28.6897C41.1317 30.3855 30.5742 41.0981 29.6332 52.5448C28.6923 63.9916 37.709 71.964 49.7348 70.2785Z" fill="url(#paint2_linear)"/>
</g>
<defs>
<filter id="filter0_f" x="0" y="0" width="115" height="113.204" filterUnits="userSpaceOnUse" color-interpolation-filters="sRGB">
<feFlood flood-opacity="0" result="BackgroundImageFix"/>
<feBlend mode="normal" in="SourceGraphic" in2="BackgroundImageFix" result="shape"/>
<feGaussianBlur stdDeviation="0.5" result="effect1_foregroundBlur"/>
</filter>
<linearGradient id="paint0_linear" x1="18546.8" y1="9219.36" x2="16342.4" y2="12030.2" gradientUnits="userSpaceOnUse">
<stop stop-color="#FF8F0A"/>
<stop offset="1" stop-color="#FFC12B"/>
</linearGradient>
<linearGradient id="paint1_linear" x1="40578.9" y1="16478.2" x2="35220.2" y2="24727.4" gradientUnits="userSpaceOnUse">
<stop stop-color="#FFE9B5"/>
<stop offset="1" stop-color="#FFCB4E"/>
</linearGradient>
<linearGradient id="paint2_linear" x1="-84" y1="76.5" x2="147" y2="1" gradientUnits="userSpaceOnUse">
<stop stop-color="#FFBE21"/>
<stop offset="1" stop-color="#FF7A00"/>
</linearGradient>
</defs>
</svg>
