<?xml version="1.0" encoding="UTF-8"?>
<svg width="76px" height="77px" viewBox="0 0 76 77" version="1.1" xmlns="http://www.w3.org/2000/svg" xmlns:xlink="http://www.w3.org/1999/xlink">
    <title>Buttons/Unlike</title>
    <defs>
        <circle id="path-1" cx="20" cy="20" r="20"></circle>
        <filter x="-88.8%" y="-53.8%" width="277.5%" height="277.5%" filterUnits="objectBoundingBox" id="filter-2">
            <feOffset dx="0" dy="14" in="SourceAlpha" result="shadowOffsetOuter1"></feOffset>
            <feGaussianBlur stdDeviation="9.5" in="shadowOffsetOuter1" result="shadowBlurOuter1"></feGaussianBlur>
            <feColorMatrix values="0 0 0 0 0   0 0 0 0 0   0 0 0 0 0  0 0 0 0.145405376 0" type="matrix" in="shadowBlurOuter1"></feColorMatrix>
        </filter>
        <circle id="path-3" cx="20" cy="20" r="20"></circle>
        <filter x="-88.8%" y="-53.8%" width="277.5%" height="277.5%" filterUnits="objectBoundingBox" id="filter-4">
            <feOffset dx="0" dy="14" in="SourceAlpha" result="shadowOffsetOuter1"></feOffset>
            <feGaussianBlur stdDeviation="9.5" in="shadowOffsetOuter1" result="shadowBlurOuter1"></feGaussianBlur>
            <feColorMatrix values="0 0 0 0 0   0 0 0 0 0   0 0 0 0 0  0 0 0 0.15 0" type="matrix" in="shadowBlurOuter1"></feColorMatrix>
        </filter>
    </defs>
    <g id="Page-1" stroke="none" stroke-width="1" fill="none" fill-rule="evenodd">
        <g id="iPhone-8" transform="translate(-472.000000, -88.000000)">
            <g id="Group" transform="translate(451.000000, 165.000000)">
                <g id="Like-Button" transform="translate(20.000000, 20.000000) rotate(-45.000000) translate(-20.000000, -20.000000) ">
                    <g id="Oval">
                        <use fill="black" fill-opacity="1" filter="url(#filter-2)" xlink:href="#path-1"></use>
                        <use fill="#FFFFFF" fill-rule="evenodd" xlink:href="#path-1"></use>
                    </g>
                    <g id="like" transform="translate(11.000000, 12.000000)" fill="#FE283D" fill-rule="nonzero">
                        <path d="M8.94617893,2.82643478 C9.67267339,1.16278261 11.3323064,0.000347826087 13.2626649,0.000347826087 C15.8629967,0.000347826087 17.735754,2.14956522 17.9711986,4.71095652 C17.9711986,4.71095652 18.0982812,5.34678261 17.8185556,6.49147826 C17.437668,8.05043478 16.5423302,9.43547826 15.3352262,10.4925217 L8.94617893,16 L2.66477385,10.4921739 C1.45766981,9.43547826 0.562331981,8.05008696 0.181444397,6.49113043 C-0.0982811733,5.34643478 0.0288013573,4.7106087 0.0288013573,4.7106087 C0.264246046,2.14921739 2.13700334,0 4.73733512,0 C6.66805356,0 8.21968446,1.16278261 8.94617893,2.82643478 Z" id="Path"></path>
                    </g>
                </g>
            </g>
            <g id="Group" transform="translate(500.000000, 96.352713)">
                <g id="Like-Button" transform="translate(20.000000, 20.000000) rotate(45.000000) translate(-20.000000, -20.000000) ">
                    <g id="Oval">
                        <use fill="black" fill-opacity="1" filter="url(#filter-4)" xlink:href="#path-3"></use>
                        <use fill="#FFFFFF" fill-rule="evenodd" xlink:href="#path-3"></use>
                    </g>
                    <g id="like" transform="translate(11.000000, 12.000000)" fill-rule="nonzero" stroke="#FE283D">
                        <path d="M8.94617893,2.82643478 C9.67267339,1.16278261 11.3323064,0.000347826087 13.2626649,0.000347826087 C15.8629967,0.000347826087 17.735754,2.14956522 17.9711986,4.71095652 C17.9711986,4.71095652 18.0982812,5.34678261 17.8185556,6.49147826 C17.437668,8.05043478 16.5423302,9.43547826 15.3352262,10.4925217 L8.94617893,16 L2.66477385,10.4921739 C1.45766981,9.43547826 0.562331981,8.05008696 0.181444397,6.49113043 C-0.0982811733,5.34643478 0.0288013573,4.7106087 0.0288013573,4.7106087 C0.264246046,2.14921739 2.13700334,0 4.73733512,0 C6.66805356,0 8.21968446,1.16278261 8.94617893,2.82643478 Z" id="Path"></path>
                    </g>
                </g>
            </g>
        </g>
    </g>
</svg>