<?xml version="1.0" encoding="UTF-8"?>
<svg width="1744px" height="656px" viewBox="0 0 1744 656" version="1.1" xmlns="http://www.w3.org/2000/svg" xmlns:xlink="http://www.w3.org/1999/xlink">
    <title>Rectangle</title>
    <defs>
        <path d="M0,-19 L1744,-19 L1744,543 C1624.5037,493.08275 1450.22621,459.385607 1221.16751,441.908573 C972.251802,422.916462 872,272 627.170573,272 C349.422425,272 140.365567,362.333333 0,543 L0,-19 Z" id="path-1"></path>
        <filter x="-1.5%" y="-2.9%" width="102.9%" height="109.1%" filterUnits="objectBoundingBox" id="filter-2">
            <feOffset dx="0" dy="9" in="SourceAlpha" result="shadowOffsetOuter1"></feOffset>
            <feGaussianBlur stdDeviation="7" in="shadowOffsetOuter1" result="shadowBlurOuter1"></feGaussianBlur>
            <feColorMatrix values="0 0 0 0 0   0 0 0 0 0   0 0 0 0 0  0 0 0 0.5 0" type="matrix" in="shadowBlurOuter1"></feColorMatrix>
        </filter>
    </defs>
    <g id="Page-1" stroke="none" stroke-width="1" fill="none" fill-rule="evenodd">
        <g id="Desktop-HD">
            <path d="M0,81 L1744,81 L1744,643 C1531.71121,565.519458 1357.43371,531.822316 1221.16751,541.908573 C971.861831,560.361876 776.964812,377.488721 628.566667,377.488721 C350.818519,377.488721 141.296296,465.992481 0,643 L0,81 Z" id="Rectangle-Copy-2" fill="#F441A5"></path>
            <path d="M0,-19 L1744,-19 L1744,613 C1531.71121,525.868857 1357.43371,487.974561 1221.16751,499.317115 C971.861831,520.068872 776.964812,314.417921 628.566667,314.417921 C350.818519,314.417921 141.296296,413.945281 0,613 L0,-19 Z" id="Rectangle-Copy" fill-opacity="0.5" fill="#03A9F4"></path>
            <g id="Rectangle">
                <use fill="black" fill-opacity="1" filter="url(#filter-2)" xlink:href="#path-1"></use>
                <use fill="#B27189" fill-rule="evenodd" xlink:href="#path-1"></use>
            </g>
        </g>
    </g>
</svg>